<svg preserveAspectRatio="none" width="26" height="29" viewBox="0 0 26 29" fill="none" xmlns="http://www.w3.org/2000/svg">
<path fill-rule="evenodd" clip-rule="evenodd" d="M11.8 22.3334C5.72486 22.3334 0.799992 17.4085 0.799992 11.3334C0.799992 5.25827 5.72486 0.333402 11.8 0.333402C17.8751 0.333402 22.8 5.25827 22.8 11.3334C22.8 14.2381 21.6741 16.8798 19.835 18.846L25.412 25.8172C25.918 26.4497 25.8154 27.3727 25.1829 27.8787C24.5504 28.3847 23.6274 28.2822 23.1214 27.6496L17.5647 20.7037C15.8884 21.7372 13.9138 22.3334 11.8 22.3334ZM11.8 19.4001C16.2551 19.4001 19.8667 15.7885 19.8667 11.3334C19.8667 6.8783 16.2551 3.26673 11.8 3.26673C7.34489 3.26673 3.73332 6.8783 3.73332 11.3334C3.73332 15.7885 7.34489 19.4001 11.8 19.4001Z" fill="black"/>
</svg>
